<svg xmlns="http://www.w3.org/2000/svg" width="17.547" height="15.793" viewBox="0 0 17.547 15.793">
  <path id="city-svgrepo-com" d="M18.67,5.509H15.161V2.877A.877.877,0,0,0,14.283,2H7.264a.877.877,0,0,0-.877.877V9.019H2.877A.877.877,0,0,0,2,9.9v7.019a.877.877,0,0,0,.877.877H18.67a.877.877,0,0,0,.877-.877V6.387A.877.877,0,0,0,18.67,5.509ZM5.509,16.038H3.755V14.283H5.509Zm0-3.509H3.755V10.774H5.509ZM9.9,16.038H8.142V14.283H9.9Zm0-3.509H8.142V10.774H9.9Zm0-3.509H8.142V7.264H9.9Zm0-3.509H8.142V3.755H9.9Zm3.509,10.528H11.651V14.283h1.755Zm0-3.509H11.651V10.774h1.755Zm0-3.509H11.651V7.264h1.755Zm0-3.509H11.651V3.755h1.755Zm4.387,10.528H16.038V14.283h1.755Zm0-3.509H16.038V10.774h1.755Zm0-3.509H16.038V7.264h1.755Z" transform="translate(-2 -2)" fill="#ff4546"/>
</svg>
