<svg xmlns="http://www.w3.org/2000/svg" width="17.547" height="16.634" viewBox="0 0 17.547 16.634">
  <g id="flag-svgrepo-com" transform="translate(0 -7.819)">
    <path id="Path_8724" data-name="Path 8724" d="M73.683,12.831a1.169,1.169,0,0,0-1.224.111c-1.366,1.025-2.688.607-4.732-.159-2-.751-4.5-1.686-6.955.159a1.169,1.169,0,0,0-.467.935v6.959a1.168,1.168,0,0,0,1.87.935c1.366-1.025,2.688-.607,4.732.159a10.974,10.974,0,0,0,3.8.915,5.1,5.1,0,0,0,3.156-1.074,1.169,1.169,0,0,0,.467-.935V13.876A1.169,1.169,0,0,0,73.683,12.831Z" transform="translate(-56.782 -3.812)" fill="#ff4546"/>
    <path id="Path_8725" data-name="Path 8725" d="M1.168,7.819A1.168,1.168,0,0,0,0,8.987v14.3a1.168,1.168,0,0,0,2.337,0V8.987A1.168,1.168,0,0,0,1.168,7.819Z" transform="translate(0 0)" fill="#ff4546"/>
  </g>
</svg>
