<svg xmlns="http://www.w3.org/2000/svg" width="20.547" height="9.5" viewBox="0 0 20.547 9.5">
  <g id="password-svgrepo-com" transform="translate(0 -12.635)">
    <g id="Group_41483" data-name="Group 41483" transform="translate(0 12.635)">
      <path id="Path_8717" data-name="Path 8717" d="M36.235,19.748a.655.655,0,0,0-.653.655v.638H36.89V20.4A.656.656,0,0,0,36.235,19.748Z" transform="translate(-20.027 -16.638)" fill="#ff4546"/>
      <path id="Path_8718" data-name="Path 8718" d="M18.023,12.635H2.524A2.533,2.533,0,0,0,0,15.16v4.45a2.532,2.532,0,0,0,2.524,2.525h15.5a2.532,2.532,0,0,0,2.524-2.525V15.16A2.533,2.533,0,0,0,18.023,12.635ZM5.491,18.074l.605.659-1.049.787-.43-.787c-.063-.112-.163-.333-.3-.659a6.86,6.86,0,0,1-.3.659l-.436.787L2.5,18.734l.652-.659a4.733,4.733,0,0,1,.537-.465c-.179-.016-.415-.049-.706-.1l-.9-.147L2.5,16.129l.81.368c.085.038.3.16.635.36q-.108-.49-.139-.728l-.115-.88H4.972l-.1.88a4.721,4.721,0,0,1-.146.728c.148-.074.246-.124.292-.151.163-.09.288-.153.372-.193l.81-.384.4,1.229-.9.187a5.22,5.22,0,0,1-.73.064A4.386,4.386,0,0,1,5.491,18.074Zm5.935,0,.606.659-1.049.786-.43-.786c-.063-.112-.163-.333-.3-.659a7.023,7.023,0,0,1-.3.659l-.437.786-1.078-.786.652-.659a4.7,4.7,0,0,1,.537-.465c-.178-.016-.415-.049-.706-.1l-.9-.147.419-1.229.81.368c.084.038.3.16.634.36q-.111-.49-.14-.728l-.115-.879h1.286l-.1.879a4.926,4.926,0,0,1-.146.728c.147-.074.245-.124.292-.151.162-.09.288-.153.372-.193l.811-.384.4,1.229-.9.187a5.206,5.206,0,0,1-.73.064A4.459,4.459,0,0,1,11.426,18.074Zm6.651,1.114a.493.493,0,0,1-.492.492H14.833a.493.493,0,0,1-.492-.492V17.53a.493.493,0,0,1,.492-.492H14.9V16.4a1.309,1.309,0,1,1,2.619,0v.638h.066a.494.494,0,0,1,.492.492v1.659Z" transform="translate(0 -12.635)" fill="#ff4546"/>
    </g>
  </g>
</svg>
