<svg xmlns="http://www.w3.org/2000/svg" width="13.885" height="14.434" viewBox="0 0 13.885 14.434">
  <path id="Path_8716" data-name="Path 8716" d="M13.381,78.572a22.414,22.414,0,0,0-4.07-2.61.121.121,0,0,1-.069-.114V74.5a3.154,3.154,0,0,0,.394-1.082c.15-.012.35-.224.565-.98.276-.972.02-1.167-.232-1.167a1.818,1.818,0,0,0,.057-.248c.447-2.679-.874-2.773-.874-2.773a2.062,2.062,0,0,0-.793-.74,2.685,2.685,0,0,0-1.63-.346,2.6,2.6,0,0,0-.651.122h0a2.9,2.9,0,0,0-.716.366,3.739,3.739,0,0,0-.736.61,2.86,2.86,0,0,0-.789,2.757h0c.016.081.037.167.057.248-.248,0-.492.207-.22,1.163.215.756.415.968.565.98a3.216,3.216,0,0,0,.394,1.082v1.35a.129.129,0,0,1-.069.114A22.708,22.708,0,0,0,.5,78.564,1.377,1.377,0,0,0,0,79.629v1.956H13.885V79.629A1.414,1.414,0,0,0,13.381,78.572Z" transform="translate(0 -67.152)" fill="#ff4546"/>
</svg>
