<svg xmlns="http://www.w3.org/2000/svg" width="23" height="23" viewBox="0 0 23 23">
  <g id="Group_41529" data-name="Group 41529" transform="translate(-14100 -9430)">
    <path id="user-svgrepo-com-2" d="M18.962,12.509l-2.786-1.393a.767.767,0,0,1-.426-.69V9.44c.067-.082.137-.175.21-.277a6.675,6.675,0,0,0,.862-1.691A1.157,1.157,0,0,0,17.5,6.417V5.25a1.163,1.163,0,0,0-.292-.766V2.933a2.615,2.615,0,0,0-.61-1.9A3.671,3.671,0,0,0,13.708,0a3.672,3.672,0,0,0-2.89,1.03,2.615,2.615,0,0,0-.61,1.9V4.484a1.163,1.163,0,0,0-.292.766V6.417a1.16,1.16,0,0,0,.437.907,6.121,6.121,0,0,0,1.022,2.111V10.4a.771.771,0,0,1-.4.677L8.371,12.5A2.63,2.63,0,0,0,7,14.806v.944c0,1.384,4.388,1.75,6.708,1.75s6.708-.366,6.708-1.75v-.888A2.617,2.617,0,0,0,18.962,12.509Z" transform="translate(14098 9433.5)" fill="#fff"/>
    <g id="Ellipse_392" data-name="Ellipse 392" transform="translate(14100 9430)" fill="none" stroke="#fff" stroke-width="2">
      <circle cx="11.5" cy="11.5" r="11.5" stroke="none"/>
      <circle cx="11.5" cy="11.5" r="10.5" fill="none"/>
    </g>
  </g>
</svg>
