<svg xmlns="http://www.w3.org/2000/svg" width="20" height="20" viewBox="0 0 20 20">
  <g id="Group_41531" data-name="Group 41531" transform="translate(-18 -586)">
    <circle id="Ellipse_399" data-name="Ellipse 399" cx="10" cy="10" r="10" transform="translate(18 586)" fill="#707070"/>
    <g id="Icon" transform="translate(14.833 586)">
      <path id="Vector" d="M6.714,0h-5.6A1.119,1.119,0,0,0,0,1.119V4.476A1.119,1.119,0,0,0,1.119,5.6h5.6A1.119,1.119,0,0,0,7.833,4.476V1.119A1.119,1.119,0,0,0,6.714,0Z" transform="translate(9.167 8.934)" fill="#fff" stroke="#fff" stroke-linecap="round" stroke-linejoin="round" stroke-miterlimit="10" stroke-width="3"/>
      <path id="Vector-2" data-name="Vector" d="M0,1.017A1.017,1.017,0,0,1,1.017,0V.915a.1.1,0,1,0,.1.1.1.1,0,0,0-.1-.1V0A1.017,1.017,0,1,1,0,1.017Z" transform="translate(12.066 10.714)" fill="#726e96"/>
      <path id="Vector-3" data-name="Vector" d="M4.476,4.934V2.7h.916V4.934a.458.458,0,0,1-.916,0ZM0,4.934V2.7A2.7,2.7,0,0,1,2.7,0V.915A1.781,1.781,0,0,0,.915,2.7V4.934a.458.458,0,1,1-.915,0ZM4.476,2.7a1.78,1.78,0,0,0-.521-1.259L4.6.79A2.7,2.7,0,0,1,5.392,2.7ZM2.7.915V0A2.7,2.7,0,0,1,4.6.79l-.647.647A1.78,1.78,0,0,0,2.7.915Z" transform="translate(10.387 4)" fill="#fff"/>
    </g>
  </g>
</svg>
