<svg xmlns="http://www.w3.org/2000/svg" xmlns:xlink="http://www.w3.org/1999/xlink" width="52" height="50" viewBox="0 0 52 50">
  <defs>
    <clipPath id="clip-path">
      <rect id="Rectangle_12" data-name="Rectangle 12" width="52" height="50" rx="25" transform="translate(0 0)" fill="#99c0e1" opacity="0.486"/>
    </clipPath>
  </defs>
  <g id="Mask_Group_4" data-name="Mask Group 4" transform="translate(0 0)" clip-path="url(#clip-path)">
    <text id="Profile" transform="translate(51 29)" fill="#444d5e" font-size="11" font-family="Poppins-SemiBold, Poppins" font-weight="600" opacity="0"><tspan x="0" y="0">Profile</tspan></text>
    <path id="Union_1" data-name="Union 1" d="M16,16.588c0-2.478-2.517-4.488-5.62-4.488h-3.2c-3.1,0-5.621,2.01-5.621,4.488a.781.781,0,1,1-1.561,0c0-3.337,3.22-6.05,7.182-6.05h3.2c3.961,0,7.181,2.713,7.181,6.05a.781.781,0,1,1-1.561,0ZM4.1,4.684A4.684,4.684,0,1,1,8.782,9.367,4.672,4.672,0,0,1,4.1,4.684Zm1.561,0A3.122,3.122,0,1,0,8.782,1.561,3.131,3.131,0,0,0,5.659,4.684Z" transform="translate(18.61 15.385)" fill="#444d5e"/>
  </g>
</svg>
