<svg xmlns="http://www.w3.org/2000/svg" width="284.5" height="284.5" viewBox="0 0 284.5 284.5">
  <g id="qr_code_scanner" transform="translate(-2 -2)">
    <path id="Path_441" data-name="Path 441" d="M108.688,66.013v42.675H66.012V66.013Zm21.338-21.338H44.675v85.35h85.35ZM108.688,179.813v42.675H66.012V179.813Zm21.338-21.338H44.675v85.35h85.35Zm92.462-92.463v42.675H179.813V66.013Zm21.337-21.338h-85.35v85.35h85.35Zm-85.35,113.8h21.338v21.338H158.475Zm21.338,21.338H201.15V201.15H179.813Zm21.337-21.338h21.337v21.338H201.15ZM158.475,201.15h21.338v21.337H158.475Zm21.338,21.337H201.15v21.338H179.813ZM201.15,201.15h21.337v21.337H201.15Zm21.337-21.337h21.337V201.15H222.488Zm0,42.675h21.337v21.338H222.488ZM286.5,73.125H258.05V30.45H215.375V2H286.5Zm0,213.375V215.375H258.05V258.05H215.375V286.5ZM2,286.5H73.125V258.05H30.45V215.375H2ZM2,2V73.125H30.45V30.45H73.125V2Z" fill="#575555"/>
  </g>
</svg>
