<svg id="Group_41506" data-name="Group 41506" xmlns="http://www.w3.org/2000/svg" width="34.269" height="35.745" viewBox="0 0 34.269 35.745">
  <path id="Path_8763" data-name="Path 8763" d="M34.267.773a.8.8,0,0,0-.036-.179C34.224.572,34.217.542,34.21.52A.9.9,0,0,0,34.067.3a.862.862,0,0,0-.214-.149.263.263,0,0,0-.071-.022A.691.691,0,0,0,33.61.1h-.079a.632.632,0,0,0-.2.037c-.014.007-.029.007-.043.015h-.007L.431,15.038a.759.759,0,0,0-.371.984.7.7,0,0,0,.321.358l11.943,6.6,6.329,12.462a.72.72,0,0,0,.629.4h.029a.722.722,0,0,0,.629-.447L34.217,1.124V1.116c.007-.015.007-.03.014-.045a.672.672,0,0,0,.036-.209A.373.373,0,0,0,34.267.773Zm-31.9,15L30.417,3.054,12.731,21.5Zm16.864,17.6L13.745,22.559,31.424,4.1Z" transform="translate(0 -0.095)" fill="#ff4546"/>
</svg>
