<svg id="Component_78_19" data-name="Component 78 – 19" xmlns="http://www.w3.org/2000/svg" width="19.2" height="19" viewBox="0 0 19.2 19">
  <rect id="Rectangle_193" data-name="Rectangle 193" width="19" height="19" fill="none"/>
  <path id="Path_104" data-name="Path 104" d="M268.98,11.875A2.375,2.375,0,1,0,266.586,9.5,2.392,2.392,0,0,0,268.98,11.875Zm-4.909-7.6a6.77,6.77,0,0,1,2.874-1.544L267.9,0H270.3l.958,2.731a8.383,8.383,0,0,1,2.874,1.544L277,3.681l1.2,2.137-1.916,2.138A6.718,6.718,0,0,1,276.4,9.5c0,.475-.12,1.069-.12,1.544l1.916,2.138L277,15.319l-2.874-.594a6.77,6.77,0,0,1-2.874,1.544L270.3,19H267.9l-.958-2.731a8.383,8.383,0,0,1-2.874-1.544l-2.874.594L260,13.181l1.916-2.138A6.718,6.718,0,0,1,261.8,9.5c0-.475.12-1.069.12-1.544L260,5.819l1.2-2.137Z" transform="translate(-259)" fill-rule="evenodd"/>
</svg>
