<svg xmlns="http://www.w3.org/2000/svg" width="18.31" height="16.479" viewBox="0 0 18.31 16.479">
  <g id="support_agent" opacity="0.38">
    <path id="Path_412" data-name="Path 412" d="M19.394,11.441A8.242,8.242,0,1,0,2.915,11.5,1.8,1.8,0,0,0,2,13.07V14.9a1.836,1.836,0,0,0,1.831,1.831h.915V11.148a6.408,6.408,0,1,1,12.816,0v6.5H10.239v1.831h7.324a1.836,1.836,0,0,0,1.831-1.831V16.531a1.693,1.693,0,0,0,.915-1.5V12.924A1.686,1.686,0,0,0,19.394,11.441Z" transform="translate(-2 -3)" fill="#707070"/>
    <path id="Path_413" data-name="Path 413" d="M8.915,13.831A.915.915,0,1,0,8,12.915.915.915,0,0,0,8.915,13.831Z" transform="translate(-2.507 -3.761)" fill="#707070"/>
    <path id="Path_414" data-name="Path 414" d="M14.915,13.831A.915.915,0,1,0,14,12.915.915.915,0,0,0,14.915,13.831Z" transform="translate(-3.014 -3.761)" fill="#707070"/>
    <path id="Path_415" data-name="Path 415" d="M16.986,10.6A5.529,5.529,0,0,0,6.019,11.9a7.392,7.392,0,0,0,4.449-5.392A7.358,7.358,0,0,0,16.986,10.6Z" transform="translate(-2.339 -3.254)" fill="#707070"/>
  </g>
</svg>
