<svg xmlns="http://www.w3.org/2000/svg" width="14.502" height="11.781" viewBox="0 0 14.502 11.781">
  <g id="Group_41529" data-name="Group 41529" transform="translate(-16 -541.7)">
    <g id="privacy-policy" transform="translate(16.002 538.7)" opacity="0.356">
      <circle id="Ellipse_257" data-name="Ellipse 257" cx="1.586" cy="1.586" r="1.586" transform="translate(1.358 3)" fill="#707070"/>
      <circle id="Ellipse_258" data-name="Ellipse 258" cx="1.586" cy="1.586" r="1.586" transform="translate(9.968 3)" fill="#707070"/>
      <path id="Path_448" data-name="Path 448" d="M7.045,15.442a4.614,4.614,0,0,1-2.09-1.777A3.208,3.208,0,0,0,2.264,12,2.2,2.2,0,0,0,0,14.264v4.984a.453.453,0,0,0,.453.453H4.077a.453.453,0,0,0,.453-.453V15.3a5.223,5.223,0,0,0,2.016,1.409.68.68,0,1,0,.5-1.265Z" transform="translate(0 -4.92)" fill="#707070"/>
      <path id="Path_449" data-name="Path 449" d="M21.973,12a3.206,3.206,0,0,0-2.691,1.669,5.285,5.285,0,0,1-1.474,1.468,1.534,1.534,0,0,1,.232,1.421A5.225,5.225,0,0,0,19.708,15.3v3.946a.453.453,0,0,0,.453.453h3.625a.453.453,0,0,0,.453-.453V14.264A2.2,2.2,0,0,0,21.973,12Z" transform="translate(-9.74 -4.92)" fill="#707070"/>
    </g>
  </g>
</svg>
