<svg xmlns="http://www.w3.org/2000/svg" width="463.78" height="372.408" viewBox="0 0 463.78 372.408">
  <g id="Group_9" data-name="Group 9" transform="translate(-2308.11 -313.796)">
    <g id="Group_5" data-name="Group 5">
      <g id="Group_1" data-name="Group 1">
        <path id="Path_1" data-name="Path 1" d="M2472.485,533.042a34.376,34.376,0,0,1-27.931-14.435,33.633,33.633,0,0,1-6.091-19.495V424.336a33.633,33.633,0,0,1,6.091-19.495,34.3,34.3,0,0,1,33.66-13.942,33.637,33.637,0,0,1,18.093,9.477l61.347,61.348-61.348,61.348a33.4,33.4,0,0,1-23.821,9.97Zm.047-117.673a9.565,9.565,0,0,0-3.6.729,8.615,8.615,0,0,0-5.5,8.238v74.776a8.917,8.917,0,0,0,15.222,6.306l43.693-43.694-43.693-43.693A8.447,8.447,0,0,0,2472.532,415.369Z" fill="#ff4546"/>
      </g>
      <g id="Group_2" data-name="Group 2">
        <path id="Path_2" data-name="Path 2" d="M2607.515,533.042a33.4,33.4,0,0,1-23.821-9.97l-61.349-61.348,61.348-61.348a33.637,33.637,0,0,1,18.093-9.477,34.3,34.3,0,0,1,33.66,13.942,33.633,33.633,0,0,1,6.091,19.495v74.776a33.633,33.633,0,0,1-6.091,19.495,34.376,34.376,0,0,1-27.931,14.435Zm-49.86-71.318,43.693,43.694a8.917,8.917,0,0,0,15.222-6.306V424.336a8.917,8.917,0,0,0-15.222-6.3Z" fill="#ff4546"/>
      </g>
      <g id="Group_3" data-name="Group 3">
        <circle id="Ellipse_1" data-name="Ellipse 1" cx="26.751" cy="26.751" r="26.751" transform="translate(2450.946 313.796)" fill="#ff4546"/>
      </g>
      <g id="Group_4" data-name="Group 4">
        <circle id="Ellipse_2" data-name="Ellipse 2" cx="26.751" cy="26.751" r="26.751" transform="translate(2575.552 313.796)" fill="#ff4546"/>
      </g>
    </g>
    <g id="Group_8" data-name="Group 8">
      <g id="Group_6" data-name="Group 6">
        <path id="Path_3" data-name="Path 3" d="M2308.885,686.2V614.348h23.122V686.2Z"/>
        <path id="Path_4" data-name="Path 4" d="M2439.441,588.005h23.051v98.2h-23.051V640.735h-2.326l-21.5,38.842h-20.795l-21.5-38.842h-2.327V686.2h-23.122v-98.2h23.122l33.062,60.837h2.326Z"/>
        <path id="Path_5" data-name="Path 5" d="M2478.353,686.2v-98.2h23.123v98.2Z"/>
        <path id="Path_6" data-name="Path 6" d="M2608.909,588.005h23.051v98.2h-23.051V640.735h-2.327l-21.5,38.842h-20.8l-21.5-38.842h-2.327V686.2h-23.122v-98.2h23.122l33.062,60.837h2.325Z"/>
        <path id="Path_7" data-name="Path 7" d="M2647.821,686.2v-98.2h23.122v98.2Z"/>
        <path id="Path_8" data-name="Path 8" d="M2685.4,651.7a72.284,72.284,0,0,1,0-29.114,49.538,49.538,0,0,1,4.934-13.324,41.858,41.858,0,0,1,8.53-11.032,37.5,37.5,0,0,1,12.8-7.437,50.741,50.741,0,0,1,17.306-2.785,54.008,54.008,0,0,1,18.47,2.961,35.212,35.212,0,0,1,13.323,8.178,37.724,37.724,0,0,1,7.966,11.878,41.529,41.529,0,0,1,3.171,14.416h-23.121q-1.835-8.317-6.1-11.315t-13.711-3a54.729,54.729,0,0,0-6.38.317,26.059,26.059,0,0,0-5.322,1.234,10.875,10.875,0,0,0-4.407,2.714,18.468,18.468,0,0,0-3.136,4.653,24.152,24.152,0,0,0-2.044,7.12,78.663,78.663,0,0,0,0,19.95,23.672,23.672,0,0,0,2.044,7.084,18.605,18.605,0,0,0,3.136,4.617,10.855,10.855,0,0,0,4.407,2.715,25.919,25.919,0,0,0,5.322,1.233,54.476,54.476,0,0,0,6.38.318q9.446,0,13.711-2.961t6.1-11.279h23.121a41.533,41.533,0,0,1-3.171,14.416,37.305,37.305,0,0,1-7.966,11.843,35.456,35.456,0,0,1-13.323,8.142,54.008,54.008,0,0,1-18.47,2.961,50.716,50.716,0,0,1-17.306-2.785,37.8,37.8,0,0,1-12.8-7.4,41.251,41.251,0,0,1-8.53-11A49.519,49.519,0,0,1,2685.4,651.7Z"/>
      </g>
      <g id="Group_7" data-name="Group 7">
        <circle id="Ellipse_3" data-name="Ellipse 3" cx="12.337" cy="12.337" r="12.337" transform="translate(2308.11 584.212)"/>
      </g>
    </g>
  </g>
</svg>
