<svg xmlns="http://www.w3.org/2000/svg" width="722.322" height="219.246" viewBox="0 0 722.322 219.246">
  <g id="Group_18" data-name="Group 18" transform="translate(-1158.839 -390.377)">
    <g id="Group_14" data-name="Group 14">
      <g id="Group_10" data-name="Group 10">
        <path id="Path_9" data-name="Path 9" d="M1192.861,609.623a34.376,34.376,0,0,1-27.931-14.435,33.63,33.63,0,0,1-6.091-19.494V500.917a33.631,33.631,0,0,1,6.091-19.495,34.3,34.3,0,0,1,33.66-13.942,33.638,33.638,0,0,1,18.093,9.477l61.348,61.348-61.348,61.348a33.4,33.4,0,0,1-23.822,9.97Zm.047-117.673a9.555,9.555,0,0,0-3.6.729,8.616,8.616,0,0,0-5.505,8.238v74.777A8.917,8.917,0,0,0,1199.028,582l43.694-43.694-43.694-43.693A8.446,8.446,0,0,0,1192.908,491.95Z" fill="#ff4546"/>
      </g>
      <g id="Group_11" data-name="Group 11">
        <path id="Path_10" data-name="Path 10" d="M1327.891,609.623a33.4,33.4,0,0,1-23.821-9.97L1242.722,538.3l61.348-61.348a33.632,33.632,0,0,1,18.092-9.477,34.3,34.3,0,0,1,33.66,13.942,33.632,33.632,0,0,1,6.091,19.495v74.777a33.632,33.632,0,0,1-6.092,19.494,34.376,34.376,0,0,1-27.931,14.435Zm-49.86-71.318L1321.724,582a8.917,8.917,0,0,0,15.222-6.305V500.917a8.917,8.917,0,0,0-15.222-6.3Z" fill="#ff4546"/>
      </g>
      <g id="Group_12" data-name="Group 12">
        <circle id="Ellipse_4" data-name="Ellipse 4" cx="26.751" cy="26.751" r="26.751" transform="translate(1171.322 390.377)" fill="#ff4546"/>
      </g>
      <g id="Group_13" data-name="Group 13">
        <circle id="Ellipse_5" data-name="Ellipse 5" cx="26.751" cy="26.751" r="26.751" transform="translate(1295.929 390.377)" fill="#ff4546"/>
      </g>
    </g>
    <g id="Group_17" data-name="Group 17">
      <g id="Group_15" data-name="Group 15">
        <path id="Path_11" data-name="Path 11" d="M1418.156,589.3V517.445h23.122V589.3Z"/>
        <path id="Path_12" data-name="Path 12" d="M1548.712,491.1h23.051v98.2h-23.051V543.832h-2.326l-21.5,38.842h-20.8l-21.5-38.842h-2.326V589.3H1457.14V491.1h23.122l33.061,60.836h2.327Z"/>
        <path id="Path_13" data-name="Path 13" d="M1587.624,589.3V491.1h23.122v98.2Z"/>
        <path id="Path_14" data-name="Path 14" d="M1718.18,491.1h23.051v98.2H1718.18V543.832h-2.327l-21.5,38.842h-20.8l-21.5-38.842h-2.327V589.3h-23.123V491.1h23.123l33.062,60.836h2.325Z"/>
        <path id="Path_15" data-name="Path 15" d="M1757.092,589.3V491.1h23.121v98.2Z"/>
        <path id="Path_16" data-name="Path 16" d="M1794.666,554.794a72.232,72.232,0,0,1,0-29.114,49.542,49.542,0,0,1,4.934-13.324,41.853,41.853,0,0,1,8.53-11.032,37.512,37.512,0,0,1,12.8-7.437,50.739,50.739,0,0,1,17.306-2.784,54,54,0,0,1,18.469,2.96,35.209,35.209,0,0,1,13.324,8.178,37.743,37.743,0,0,1,7.965,11.878,41.512,41.512,0,0,1,3.172,14.416H1858.04q-1.836-8.317-6.1-11.315t-13.711-2.995a54.517,54.517,0,0,0-6.38.317,25.985,25.985,0,0,0-5.322,1.233,10.877,10.877,0,0,0-4.407,2.714,18.448,18.448,0,0,0-3.136,4.653,24.155,24.155,0,0,0-2.044,7.12,78.663,78.663,0,0,0,0,19.95,23.676,23.676,0,0,0,2.044,7.084,18.593,18.593,0,0,0,3.136,4.618,10.866,10.866,0,0,0,4.407,2.714,25.921,25.921,0,0,0,5.322,1.233,54.493,54.493,0,0,0,6.38.318q9.445,0,13.711-2.961t6.1-11.279h23.121a41.507,41.507,0,0,1-3.172,14.416,37.323,37.323,0,0,1-7.965,11.843,35.453,35.453,0,0,1-13.324,8.142,54,54,0,0,1-18.469,2.961,50.715,50.715,0,0,1-17.306-2.785,37.815,37.815,0,0,1-12.8-7.4,41.267,41.267,0,0,1-8.53-11A49.511,49.511,0,0,1,1794.666,554.794Z"/>
      </g>
      <g id="Group_16" data-name="Group 16">
        <circle id="Ellipse_6" data-name="Ellipse 6" cx="12.337" cy="12.337" r="12.337" transform="translate(1417.38 487.309)"/>
      </g>
    </g>
  </g>
</svg>
