<svg id="edit-svgrepo-com-2" xmlns="http://www.w3.org/2000/svg" width="9.073" height="8.898" viewBox="0 0 9.073 8.898">
  <path id="Path_8736" data-name="Path 8736" d="M.55.55H1.945V0H0V1.945H.55Z" fill="#ff4546"/>
  <path id="Path_8737" data-name="Path 8737" d="M379,0V.55h1.394V1.945h.55V0Z" transform="translate(-372.047)" fill="#ff4546"/>
  <rect id="Rectangle_17409" data-name="Rectangle 17409" width="1.67" height="0.55" transform="translate(3.617)" fill="#ff4546"/>
  <rect id="Rectangle_17410" data-name="Rectangle 17410" width="1.67" height="0.55" transform="translate(3.617 8.348)" fill="#ff4546"/>
  <path id="Path_8738" data-name="Path 8738" d="M380.394,380.394H379v.55h1.945V379h-.55Z" transform="translate(-372.047 -372.047)" fill="#ff4546"/>
  <rect id="Rectangle_17411" data-name="Rectangle 17411" width="0.698" height="1.745" transform="translate(8.375 3.49)" fill="#ff4546"/>
  <rect id="Rectangle_17412" data-name="Rectangle 17412" width="0.698" height="1.745" transform="translate(0 3.49)" fill="#ff4546"/>
  <path id="Path_8739" data-name="Path 8739" d="M215.484,173.669l-1.1-1.1.709-.709,1.1,1.1Z" transform="translate(-210.448 -168.704)" fill="#ff4546"/>
  <path id="Path_8740" data-name="Path 8740" d="M25,392.793l1.256-.367-.889-.889Z" transform="translate(-24.541 -384.354)" fill="#ff4546"/>
  <path id="Path_8741" data-name="Path 8741" d="M60.383,234.163l2.436-2.436,1.1,1.1-2.436,2.436Z" transform="translate(-59.275 -227.476)" fill="#ff4546"/>
</svg>
