<svg xmlns="http://www.w3.org/2000/svg" width="17.368" height="17.368" viewBox="0 0 17.368 17.368">
  <path id="Path_8623" data-name="Path 8623" d="M8.684,0a8.684,8.684,0,1,0,8.684,8.684A8.709,8.709,0,0,0,8.684,0ZM8.6,14.415A1.216,1.216,0,1,1,9.813,13.2,1.187,1.187,0,0,1,8.6,14.415Zm2.345-6.773L9.987,8.684a1.061,1.061,0,0,0-.347.782A1.056,1.056,0,0,1,8.6,10.508,1,1,0,0,1,7.555,9.465,1.938,1.938,0,0,1,8.25,7.9l.782-.955a1.971,1.971,0,0,0,.608-1.216.911.911,0,0,0-.955-.955,1.022,1.022,0,0,0-1.042.782A1.134,1.134,0,0,1,6.6,6.166a.911.911,0,0,1-.955-.955.944.944,0,0,1,.087-.434A2.894,2.894,0,0,1,8.684,2.953a2.814,2.814,0,0,1,3.039,2.779A2.849,2.849,0,0,1,10.942,7.642Z"/>
</svg>
