<svg xmlns="http://www.w3.org/2000/svg" width="16.37" height="9.971" viewBox="0 0 16.37 9.971">
  <path id="XMLID_2_" d="M10.912,81.186a1.009,1.009,0,1,1,1.266.659A1.011,1.011,0,0,1,10.912,81.186Zm-10.3.659a1.009,1.009,0,1,0-.659-1.266A1.011,1.011,0,0,0,.61,81.845Zm15.622.991a.9.9,0,0,1,.038.262l-.256,2.494a1.008,1.008,0,0,1-.761.927l-2.66.844s-.627,1.982-.633,1.982a.689.689,0,0,1-.665.5.7.7,0,0,1-.7-.7,1.243,1.243,0,0,1,.09-.339c.013-.045.556-1.548.78-2.168L9.2,87.357s-.627,1.982-.633,1.982a.689.689,0,0,1-.665.5.7.7,0,0,1-.7-.7A1.243,1.243,0,0,1,7.3,88.8c.013-.058.87-2.43.87-2.43a.626.626,0,0,1,.384-.307l1.944-.614s.058-1.452.058-1.477H9.14l-1.317.416a.544.544,0,0,1-.678-.352.227.227,0,0,1-.013-.064H5.642c-.006.019-.006.045-.013.064a.541.541,0,0,1-.678.352l-2.731-.863.058,1.925,1.944.614a.626.626,0,0,1,.384.307s.857,2.372.87,2.43a1.243,1.243,0,0,1,.09.339.7.7,0,0,1-1.362.2c0-.006-.633-1.982-.633-1.982L.917,86.52a1.007,1.007,0,0,1-.761-.927L-.1,83.1a.9.9,0,0,1,.038-.262,1.014,1.014,0,0,1,.55-.639,1.122,1.122,0,0,1,.85-.064L5.278,83.38a.522.522,0,0,1,.307.275H7.209a.54.54,0,0,1,.307-.275l3.939-1.26a1.122,1.122,0,0,1,.85.064,1.073,1.073,0,0,1,.524.576l2.008-.633a1.122,1.122,0,0,1,.85.064A1.072,1.072,0,0,1,16.232,82.836Zm-2.277.7-1.145.364h0l-1.477.448.077.243,1.381-.416-.147,1.413a1.326,1.326,0,0,1-.064.294l1.33-.422Zm1.605-1.675a1.009,1.009,0,1,0-1.266-.659A1.011,1.011,0,0,0,15.561,81.858Z" transform="translate(0.1 -79.874)" fill="#ff4546"/>
</svg>
