<svg xmlns="http://www.w3.org/2000/svg" width="9.477" height="12.305" viewBox="0 0 9.477 12.305">
  <g id="rank-svgrepo-com" transform="translate(-34.167)">
    <path id="Path_8744" data-name="Path 8744" d="M43.326,0H34.512a.343.343,0,0,0-.345.331V9.559a.338.338,0,0,0,.179.29l4.411,2.414a.336.336,0,0,0,.321,0l4.4-2.414a.325.325,0,0,0,.166-.29V.331A.32.32,0,0,0,43.326,0Zm-.345,9.363L38.905,11.6,34.829,9.363V.662h8.152Z" fill="#ff4546"/>
    <path id="Path_8745" data-name="Path 8745" d="M87.671,173.056V171.5l-2.748,1.448L82.167,171.5v1.552l2.755,1.5Z" transform="translate(-46.014 -164.403)" fill="#ff4546"/>
    <path id="Path_8746" data-name="Path 8746" d="M87.671,117.4v-1.556l-2.748,1.448-2.755-1.448V117.4l2.755,1.5Z" transform="translate(-46.014 -111.052)" fill="#ff4546"/>
  </g>
</svg>
