<svg xmlns="http://www.w3.org/2000/svg" width="11.624" height="8.5" viewBox="0 0 11.624 8.5">
  <g id="video-svgrepo-com-3" transform="translate(-2 -5.5)">
    <path id="Path_8751" data-name="Path 8751" d="M3.625,5.5A1.625,1.625,0,0,0,2,7.125v5.25A1.625,1.625,0,0,0,3.625,14h4.75A1.625,1.625,0,0,0,10,12.375V7.125A1.625,1.625,0,0,0,8.375,5.5Z" fill="#ff4546"/>
    <path id="Path_8752" data-name="Path 8752" d="M21.312,13.822,19.5,12.047V9l1.806-1.814a.625.625,0,0,1,1.068.441v5.749A.625.625,0,0,1,21.312,13.822Z" transform="translate(-8.75 -0.75)" fill="#ff4546"/>
  </g>
</svg>
