<svg xmlns="http://www.w3.org/2000/svg" width="15" height="16" viewBox="0 0 15 16">
  <g id="Group_41486" data-name="Group 41486" transform="translate(-14122 -9702)">
    <path id="Path_8735" data-name="Path 8735" d="M5,0h5a5,5,0,0,1,5,5v6a5,5,0,0,1-5,5H5a5,5,0,0,1-5-5V5A5,5,0,0,1,5,0Z" transform="translate(14122 9702)" fill="#ff4546"/>
    <g id="soccer-svgrepo-com" transform="translate(14125.625 9706.127)">
      <g id="Group_41486-2" data-name="Group 41486" transform="translate(0.002)">
        <path id="Path_8735-2" data-name="Path 8735" d="M7.738,3.595a3.84,3.84,0,0,0-.984-2.312h0l-.065-.07,0,0-.07-.072L6.55,1.073l-.036-.033-.026-.024L6.435.967l0,0A3.874,3.874,0,0,0,1.543.78l-.01.007L1.475.833l-.02.016-.049.04L1.38.911,1.339.946,1.3.976l-.034.03-.042.039L1.2,1.069l-.067.065L1.071,1.2l-.024.026-.039.042L.978,1.3l-.03.034-.035.041L.89,1.4l-.04.049-.015.019L.79,1.531l-.007.009A3.874,3.874,0,0,0,.965,6.429l0,0,.048.054.024.026.033.036.062.063.072.07,0,0,.071.065h0a3.84,3.84,0,0,0,2.288.982h0l.065,0c.079,0,.159.008.238.008a3.874,3.874,0,0,0,.474-.029h.005L4.446,7.7l.022,0,.051-.008.049-.009h0A3.878,3.878,0,0,0,7.686,4.57v0q.006-.034.011-.068L7.7,4.468l.007-.045q0-.028.008-.056l0-.026q0-.039.009-.079V4.255A3.875,3.875,0,0,0,7.738,3.595ZM6.614,1.5a3.592,3.592,0,0,1,.794,1.555L6.385,4.076a.33.33,0,0,0-.049.062l-.95-.151a.328.328,0,0,0-.027-.074L4.715,2.649a.329.329,0,0,0-.044-.065l.437-.857h.027a.329.329,0,0,0,.052,0ZM5.124,4.118l-1,1a.08.08,0,0,1-.093.015L2.764,4.492a.08.08,0,0,1-.043-.084l.222-1.4h0a.08.08,0,0,1,.067-.067l1.4-.222h.013a.08.08,0,0,1,.071.044l.644,1.264A.08.08,0,0,1,5.124,4.118ZM6.333,1.208l.033.031.021.021.021.021-1.261.2a.08.08,0,0,1-.084-.043L4.484.3A3.637,3.637,0,0,1,6.333,1.208Zm-4.1.754L2.462.532A3.619,3.619,0,0,1,3.875.247c.1,0,.209,0,.312.013l.656,1.288a.329.329,0,0,0,.044.065l-.437.858a.329.329,0,0,0-.079,0l-1.4.222a.329.329,0,0,0-.076.021l-.68-.68A.329.329,0,0,0,2.236,1.962ZM.987,1.681,1,1.666l.031-.04L1.05,1.6l.026-.032.048-.057.015-.017.04-.045.019-.02.04-.043.016-.017.057-.059.059-.058.017-.016.043-.04.02-.018L1.5,1.136l.016-.014.057-.048L1.6,1.049l.028-.022L1.668,1,1.684.984A3.6,3.6,0,0,1,2.192.661l-.2,1.262a.08.08,0,0,1-.067.067l-1.262.2A3.593,3.593,0,0,1,.987,1.681ZM.249,3.873A3.619,3.619,0,0,1,.534,2.46l1.43-.226a.329.329,0,0,0,.076-.021l.68.68a.329.329,0,0,0-.021.076l-.222,1.4a.329.329,0,0,0,0,.079l-.857.437a.33.33,0,0,0-.065-.044L.263,4.185C.254,4.082.249,3.978.249,3.873ZM1.481,5.145l-.2,1.261-.021-.021L1.24,6.364,1.21,6.331A3.637,3.637,0,0,1,.3,4.482l1.138.58A.08.08,0,0,1,1.481,5.145ZM1.5,6.612l.226-1.428a.329.329,0,0,0,0-.079l.857-.437a.33.33,0,0,0,.065.044l1.264.644a.33.33,0,0,0,.074.027l.15.95a.329.329,0,0,0-.062.049L3.055,7.406A3.592,3.592,0,0,1,1.5,6.612Zm2.972.838-.045.007-.026,0a3.678,3.678,0,0,1-.525.038q-.13,0-.259-.009l-.047,0-.02,0q-.1-.009-.2-.024l.9-.9a.08.08,0,0,1,.093-.015l1.139.58A3.61,3.61,0,0,1,4.471,7.45ZM6.439,6.437a3.65,3.65,0,0,1-.692.543L4.458,6.322A.33.33,0,0,0,4.384,6.3l-.151-.951A.328.328,0,0,0,4.3,5.3l1-1a.33.33,0,0,0,.049-.062l.95.151a.328.328,0,0,0,.027.074l.657,1.289A3.651,3.651,0,0,1,6.439,6.437ZM7.463,4.4l0,.026-.007.046a3.611,3.611,0,0,1-.327,1.012l-.58-1.139a.08.08,0,0,1,.015-.093l.9-.9q.015.1.024.2l0,.021c0,.015,0,.031,0,.046q.009.129.009.259A3.678,3.678,0,0,1,7.463,4.4Z" transform="translate(-0.002)" fill="#fff"/>
      </g>
    </g>
  </g>
</svg>
